<svg xmlns="http://www.w3.org/2000/svg" viewBox="0 0 64 64">
  <!-- Banyes -->
  <polygon points="16,30 10,2 22,20" fill="#a00000"/>
  <polygon points="48,30 54,2 42,20" fill="#a00000"/>

  <!-- Cap -->
  <ellipse cx="32" cy="39" rx="23" ry="24" fill="#cc0000"/>

  <!-- Ull esquerre -->
  <ellipse cx="22" cy="37" rx="7.5" ry="8.5" fill="white"/>
  <ellipse cx="23" cy="38" rx="4.5" ry="6" fill="#0c0000"/>
  <ellipse cx="21" cy="35" rx="2" ry="2" fill="white"/>

  <!-- Ull dret -->
  <ellipse cx="42" cy="37" rx="7.5" ry="8.5" fill="white"/>
  <ellipse cx="41" cy="38" rx="4.5" ry="6" fill="#0c0000"/>
  <ellipse cx="40" cy="35" rx="2" ry="2" fill="white"/>

  <!-- Celles diaboliques -->
  <line x1="14" y1="27" x2="27" y2="24" stroke="#0c0000" stroke-width="2.5" stroke-linecap="round"/>
  <line x1="37" y1="24" x2="50" y2="27" stroke="#0c0000" stroke-width="2.5" stroke-linecap="round"/>

  <!-- Nas -->
  <ellipse cx="29.5" cy="45" rx="1.5" ry="1" fill="#a00000"/>
  <ellipse cx="34.5" cy="45" rx="1.5" ry="1" fill="#a00000"/>

  <!-- Somriure i dents -->
  <path d="M19,52 Q32,64 45,52" stroke="white" stroke-width="2.5" fill="none" stroke-linecap="round"/>
  <rect x="25" y="51" width="5" height="4" rx="1" fill="white"/>
  <rect x="32" y="51" width="5" height="4" rx="1" fill="white"/>
</svg>
